TITLE ""
FILE "DISC2Track04.mp3" MP3
  TRACK 01 AUDIO
    TITLE "DISC2Track04_01"
    INDEX 01 00:00:00
  TRACK 02 AUDIO
    TITLE "DISC2Track04_02"
    INDEX 01 00:01:43
  TRACK 03 AUDIO
    TITLE "DISC2Track04_03"
    INDEX 01 00:01:59
  TRACK 04 AUDIO
    TITLE "DISC2Track04_04"
    INDEX 01 00:04:51
  TRACK 05 AUDIO
    TITLE "DISC2Track04_05"
    INDEX 01 00:07:24
  TRACK 06 AUDIO
    TITLE "DISC2Track04_06"
    INDEX 01 00:09:39
  TRACK 07 AUDIO
    TITLE "DISC2Track04_07"
    INDEX 01 00:09:52
  TRACK 08 AUDIO
    TITLE "DISC2Track04_08"
    INDEX 01 00:14:32
  TRACK 09 AUDIO
    TITLE "DISC2Track04_09"
    INDEX 01 00:18:36
  TRACK 10 AUDIO
    TITLE "DISC2Track04_10"
    INDEX 01 00:22:02
  TRACK 11 AUDIO
    TITLE "DISC2Track04_11"
    INDEX 01 00:22:18
  TRACK 12 AUDIO
    TITLE "DISC2Track04_12"
    INDEX 01 00:25:36
  TRACK 13 AUDIO
    TITLE "DISC2Track04_13"
    INDEX 01 00:29:51
  TRACK 14 AUDIO
    TITLE "DISC2Track04_14"
    INDEX 01 00:33:45
  TRACK 15 AUDIO
    TITLE "DISC2Track04_15"
    INDEX 01 00:33:59
  TRACK 16 AUDIO
    TITLE "DISC2Track04_16"
    INDEX 01 00:36:71
  TRACK 17 AUDIO
    TITLE "DISC2Track04_17"
    INDEX 01 00:40:02
  TRACK 18 AUDIO
    TITLE "DISC2Track04_18"
    INDEX 01 00:42:58
  TRACK 19 AUDIO
    TITLE "DISC2Track04_19"
    INDEX 01 00:42:71
  TRACK 20 AUDIO
    TITLE "DISC2Track04_20"
    INDEX 01 00:46:38
  TRACK 21 AUDIO
    TITLE "DISC2Track04_21"
    INDEX 01 00:50:43
  TRACK 22 AUDIO
    TITLE "DISC2Track04_22"
    INDEX 01 00:54:12
  TRACK 23 AUDIO
    TITLE "DISC2Track04_23"
    INDEX 01 00:54:24
  TRACK 24 AUDIO
    TITLE "DISC2Track04_24"
    INDEX 01 00:57:47
  TRACK 25 AUDIO
    TITLE "DISC2Track04_25"
    INDEX 01 01:01:37
  TRACK 26 AUDIO
    TITLE "DISC2Track04_26"
    INDEX 01 01:04:67
  TRACK 27 AUDIO
    TITLE "DISC2Track04_27"
    INDEX 01 01:05:08
  TRACK 28 AUDIO
    TITLE "DISC2Track04_28"
    INDEX 01 01:07:50
  TRACK 29 AUDIO
    TITLE "DISC2Track04_29"
    INDEX 01 01:10:23
  TRACK 30 AUDIO
    TITLE "DISC2Track04_30"
    INDEX 01 01:12:47
  TRACK 31 AUDIO
    TITLE "DISC2Track04_31"
    INDEX 01 01:12:65
  TRACK 32 AUDIO
    TITLE "DISC2Track04_32"
    INDEX 01 01:15:39
  TRACK 33 AUDIO
    TITLE "DISC2Track04_33"
    INDEX 01 01:18:65
  TRACK 34 AUDIO
    TITLE "DISC2Track04_34"
    INDEX 01 01:21:66
  TRACK 35 AUDIO
    TITLE "DISC2Track04_35"
    INDEX 01 01:21:75
  TRACK 36 AUDIO
    TITLE "DISC2Track04_36"
    INDEX 01 01:26:26
  TRACK 37 AUDIO
    TITLE "DISC2Track04_37"
    INDEX 01 01:30:29
  TRACK 38 AUDIO
    TITLE "DISC2Track04_38"
    INDEX 01 01:34:02
  TRACK 39 AUDIO
    TITLE "DISC2Track04_39"
    INDEX 01 01:34:17
  TRACK 40 AUDIO
    TITLE "DISC2Track04_40"
    INDEX 01 01:37:43
  TRACK 41 AUDIO
    TITLE "DISC2Track04_41"
    INDEX 01 01:40:75
  TRACK 42 AUDIO
    TITLE "DISC2Track04_42"
    INDEX 01 01:44:12
